<svg xmlns="http://www.w3.org/2000/svg" viewBox="0 0 100 100" fill="none">
  <!-- Cosmic background glow -->
  <defs>
    <radialGradient id="cosmicGlowIslam" cx="50%" cy="50%" r="60%">
      <stop offset="0%" style="stop-color:#ffffff;stop-opacity:0.3"/>
      <stop offset="50%" style="stop-color:#e6f3ff;stop-opacity:0.2"/>
      <stop offset="100%" style="stop-color:#b3d9ff;stop-opacity:0.1"/>
    </radialGradient>
    <filter id="glowIslam">
      <feGaussianBlur stdDeviation="2" result="coloredBlur"/>
      <feMerge> 
        <feMergeNode in="coloredBlur"/>
        <feMergeNode in="SourceGraphic"/>
      </feMerge>
    </filter>
  </defs>
  
  <!-- Background cosmic circle -->
  <circle cx="50" cy="50" r="45" fill="url(#cosmicGlowIslam)" stroke="white" stroke-width="1" opacity="0.6"/>
  
  <!-- Crescent and Star -->
  <g filter="url(#glowIslam)">
    <!-- Crescent moon -->
    <path d="M25 50 C25 30, 40 15, 60 15 C45 15, 35 30, 35 50 C35 70, 45 85, 60 85 C40 85, 25 70, 25 50 Z" 
          fill="white" stroke="white" stroke-width="2"/>
    
    <!-- Five-pointed star -->
    <path d="M70 35 L72.5 42 L80 42 L74.5 47 L77 54 L70 49 L63 54 L65.5 47 L60 42 L67.5 42 Z" 
          fill="white" stroke="white" stroke-width="1.5"/>
    
    <!-- Decorative cosmic elements -->
    <circle cx="30" cy="35" r="1.5" fill="white" opacity="0.8"/>
    <circle cx="80" cy="25" r="1" fill="white" opacity="0.7"/>
    <circle cx="20" cy="65" r="1" fill="white" opacity="0.9"/>
    <circle cx="75" cy="70" r="1.5" fill="white" opacity="0.6"/>
    
    <!-- Small ornamental crescents -->
    <path d="M15 30 C15 28, 16 27, 17 27 C16 27, 15.5 28, 15.5 30 C15.5 32, 16 33, 17 33 C16 33, 15 32, 15 30 Z" 
          fill="white" opacity="0.5"/>
    <path d="M82 60 C82 58, 83 57, 84 57 C83 57, 82.5 58, 82.5 60 C82.5 62, 83 63, 84 63 C83 63, 82 62, 82 60 Z" 
          fill="white" opacity="0.5"/>
  </g>
</svg>
