<svg xmlns="http://www.w3.org/2000/svg" viewBox="0 0 100 100" fill="none">
  <!-- Cosmic background glow -->
  <defs>
    <radialGradient id="cosmicGlowHindu" cx="50%" cy="50%" r="60%">
      <stop offset="0%" style="stop-color:#ffffff;stop-opacity:0.3"/>
      <stop offset="50%" style="stop-color:#e6f3ff;stop-opacity:0.2"/>
      <stop offset="100%" style="stop-color:#b3d9ff;stop-opacity:0.1"/>
    </radialGradient>
    <filter id="glowHindu">
      <feGaussianBlur stdDeviation="2" result="coloredBlur"/>
      <feMerge> 
        <feMergeNode in="coloredBlur"/>
        <feMergeNode in="SourceGraphic"/>
      </feMerge>
    </filter>
  </defs>
  
  <!-- Background cosmic circle -->
  <circle cx="50" cy="50" r="45" fill="url(#cosmicGlowHindu)" stroke="white" stroke-width="1" opacity="0.6"/>
  
  <!-- Om Symbol -->
  <g filter="url(#glowHindu)">
    <!-- Main Om body -->
    <path d="M20 45 C18 40, 22 35, 28 35 C35 35, 40 40, 42 45 C44 50, 48 52, 52 50 C58 47, 65 50, 70 55 C75 60, 70 65, 65 65 C60 65, 55 62, 52 58 C50 56, 48 58, 46 60 C44 62, 40 65, 35 65 C30 65, 25 60, 25 55 C25 52, 26 49, 28 47 C26 45, 22 47, 20 45 Z" 
          fill="white" stroke="white" stroke-width="2"/>
    
    <!-- Upper curve of Om -->
    <path d="M45 25 C50 20, 60 25, 65 30 C70 35, 65 40, 60 38 C55 36, 50 32, 45 30 C43 28, 43 26, 45 25 Z" 
          fill="white" stroke="white" stroke-width="1.5"/>
    
    <!-- Dot above Om -->
    <circle cx="55" cy="20" r="3" fill="white" stroke="white" stroke-width="1"/>
    
    <!-- Curve above dot -->
    <path d="M50 15 C52 12, 58 12, 60 15" 
          fill="none" stroke="white" stroke-width="2" stroke-linecap="round"/>
    
    <!-- Small decorative elements -->
    <circle cx="25" cy="25" r="1" fill="white" opacity="0.8"/>
    <circle cx="75" cy="30" r="1.5" fill="white" opacity="0.7"/>
    <circle cx="80" cy="70" r="1" fill="white" opacity="0.9"/>
    <circle cx="15" cy="70" r="1.5" fill="white" opacity="0.6"/>
    
    <!-- Cosmic mandala elements -->
    <circle cx="50" cy="50" r="35" fill="none" stroke="white" stroke-width="0.5" opacity="0.3"/>
    <circle cx="50" cy="50" r="40" fill="none" stroke="white" stroke-width="0.5" opacity="0.2"/>
  </g>
</svg>
