<svg xmlns="http://www.w3.org/2000/svg" viewBox="0 0 100 100" fill="none">
  <!-- Cosmic background glow -->
  <defs>
    <radialGradient id="cosmicGlowJewish" cx="50%" cy="50%" r="60%">
      <stop offset="0%" style="stop-color:#ffffff;stop-opacity:0.3"/>
      <stop offset="50%" style="stop-color:#e6f3ff;stop-opacity:0.2"/>
      <stop offset="100%" style="stop-color:#b3d9ff;stop-opacity:0.1"/>
    </radialGradient>
    <filter id="glowJewish">
      <feGaussianBlur stdDeviation="2" result="coloredBlur"/>
      <feMerge> 
        <feMergeNode in="coloredBlur"/>
        <feMergeNode in="SourceGraphic"/>
      </feMerge>
    </filter>
  </defs>
  
  <!-- Background cosmic circle -->
  <circle cx="50" cy="50" r="45" fill="url(#cosmicGlowJewish)" stroke="white" stroke-width="1" opacity="0.6"/>
  
  <!-- Star of David -->
  <g filter="url(#glowJewish)">
    <!-- Upward pointing triangle -->
    <path d="M50 20 L65 45 L35 45 Z" 
          fill="none" stroke="white" stroke-width="3" stroke-linejoin="round"/>
    
    <!-- Downward pointing triangle -->
    <path d="M50 80 L35 55 L65 55 Z" 
          fill="none" stroke="white" stroke-width="3" stroke-linejoin="round"/>
    
    <!-- Central hexagon formed by intersection -->
    <path d="M42.5 37.5 L57.5 37.5 L65 50 L57.5 62.5 L42.5 62.5 L35 50 Z" 
          fill="none" stroke="white" stroke-width="1.5"/>
    
    <!-- Decorative elements at triangle points -->
    <g fill="white" stroke="white" stroke-width="1">
      <circle cx="50" cy="20" r="2.5"/>
      <circle cx="65" cy="45" r="2.5"/>
      <circle cx="35" cy="45" r="2.5"/>
      <circle cx="50" cy="80" r="2.5"/>
      <circle cx="35" cy="55" r="2.5"/>
      <circle cx="65" cy="55" r="2.5"/>
    </g>
    
    <!-- Central star point -->
    <circle cx="50" cy="50" r="3" fill="white"/>
    
    <!-- Small cosmic elements -->
    <circle cx="25" cy="25" r="1" fill="white" opacity="0.8"/>
    <circle cx="75" cy="25" r="1.5" fill="white" opacity="0.7"/>
    <circle cx="75" cy="75" r="1" fill="white" opacity="0.9"/>
    <circle cx="25" cy="75" r="1.5" fill="white" opacity="0.6"/>
    
    <!-- Subtle star patterns around -->
    <path d="M20 35 L21 37 L23 37 L21.5 38.5 L22 40.5 L20 39 L18 40.5 L18.5 38.5 L17 37 L19 37 Z" 
          fill="white" opacity="0.4" stroke="none"/>
    <path d="M80 65 L81 67 L83 67 L81.5 68.5 L82 70.5 L80 69 L78 70.5 L78.5 68.5 L77 67 L79 67 Z" 
          fill="white" opacity="0.4" stroke="none"/>
  </g>
</svg>
